<mxfile host="app.diagrams.net" modified="2021-05-28T06:27:47.126Z" agent="5.0 (Windows NT 10.0; WOW64) AppleWebKit/537.36 (KHTML, like Gecko) Chrome/86.0.4240.198 Safari/537.36" etag="9Vk7o45tJArAUe0frH-p" version="14.6.5" type="github">
  <diagram id="C5RBs43oDa-KdzZeNtuy" name="Page-1">
    <mxGraphModel dx="874" dy="511" grid="1" gridSize="10" guides="1" tooltips="1" connect="1" arrows="1" fold="1" page="0" pageScale="1" pageWidth="827" pageHeight="1169" math="0" shadow="0">
      <root>
        <mxCell id="WIyWlLk6GJQsqaUBKTNV-0" />
        <mxCell id="WIyWlLk6GJQsqaUBKTNV-1" parent="WIyWlLk6GJQsqaUBKTNV-0" />
        <mxCell id="e9XX3V7E6USTkY81MT2J-9" style="edgeStyle=orthogonalEdgeStyle;rounded=0;orthogonalLoop=1;jettySize=auto;html=1;entryX=0;entryY=0.5;entryDx=0;entryDy=0;" edge="1" parent="WIyWlLk6GJQsqaUBKTNV-1" source="e9XX3V7E6USTkY81MT2J-0" target="e9XX3V7E6USTkY81MT2J-1">
          <mxGeometry relative="1" as="geometry" />
        </mxCell>
        <mxCell id="e9XX3V7E6USTkY81MT2J-0" value="控制器" style="rounded=0;whiteSpace=wrap;html=1;" vertex="1" parent="WIyWlLk6GJQsqaUBKTNV-1">
          <mxGeometry x="-230" y="260" width="80" height="40" as="geometry" />
        </mxCell>
        <mxCell id="e9XX3V7E6USTkY81MT2J-10" style="edgeStyle=orthogonalEdgeStyle;rounded=0;orthogonalLoop=1;jettySize=auto;html=1;entryX=0;entryY=0.5;entryDx=0;entryDy=0;" edge="1" parent="WIyWlLk6GJQsqaUBKTNV-1" source="e9XX3V7E6USTkY81MT2J-1" target="e9XX3V7E6USTkY81MT2J-2">
          <mxGeometry relative="1" as="geometry">
            <mxPoint x="40" y="290" as="targetPoint" />
          </mxGeometry>
        </mxCell>
        <mxCell id="e9XX3V7E6USTkY81MT2J-1" value="轴流柱塞调节阀" style="rounded=0;whiteSpace=wrap;html=1;" vertex="1" parent="WIyWlLk6GJQsqaUBKTNV-1">
          <mxGeometry x="-120" y="260" width="120" height="40" as="geometry" />
        </mxCell>
        <mxCell id="e9XX3V7E6USTkY81MT2J-12" style="edgeStyle=orthogonalEdgeStyle;rounded=0;orthogonalLoop=1;jettySize=auto;html=1;entryX=0.5;entryY=1;entryDx=0;entryDy=0;" edge="1" parent="WIyWlLk6GJQsqaUBKTNV-1" source="e9XX3V7E6USTkY81MT2J-2" target="e9XX3V7E6USTkY81MT2J-3">
          <mxGeometry relative="1" as="geometry">
            <Array as="points">
              <mxPoint x="150" y="280" />
              <mxPoint x="150" y="340" />
              <mxPoint x="-275" y="340" />
            </Array>
          </mxGeometry>
        </mxCell>
        <mxCell id="e9XX3V7E6USTkY81MT2J-2" value="压力传感器" style="rounded=0;whiteSpace=wrap;html=1;" vertex="1" parent="WIyWlLk6GJQsqaUBKTNV-1">
          <mxGeometry x="30" y="262.5" width="90" height="35" as="geometry" />
        </mxCell>
        <mxCell id="e9XX3V7E6USTkY81MT2J-8" style="edgeStyle=orthogonalEdgeStyle;rounded=0;orthogonalLoop=1;jettySize=auto;html=1;entryX=0;entryY=0.5;entryDx=0;entryDy=0;" edge="1" parent="WIyWlLk6GJQsqaUBKTNV-1" source="e9XX3V7E6USTkY81MT2J-3" target="e9XX3V7E6USTkY81MT2J-0">
          <mxGeometry relative="1" as="geometry" />
        </mxCell>
        <mxCell id="e9XX3V7E6USTkY81MT2J-3" value="" style="ellipse;whiteSpace=wrap;html=1;aspect=fixed;" vertex="1" parent="WIyWlLk6GJQsqaUBKTNV-1">
          <mxGeometry x="-290" y="265" width="30" height="30" as="geometry" />
        </mxCell>
        <mxCell id="e9XX3V7E6USTkY81MT2J-4" value="" style="endArrow=classic;html=1;entryX=0;entryY=0.5;entryDx=0;entryDy=0;" edge="1" parent="WIyWlLk6GJQsqaUBKTNV-1" target="e9XX3V7E6USTkY81MT2J-3">
          <mxGeometry width="50" height="50" relative="1" as="geometry">
            <mxPoint x="-360" y="280" as="sourcePoint" />
            <mxPoint x="-310" y="270" as="targetPoint" />
          </mxGeometry>
        </mxCell>
        <mxCell id="e9XX3V7E6USTkY81MT2J-5" value="总压、静压&lt;br&gt;设定值" style="text;html=1;align=center;verticalAlign=middle;resizable=0;points=[];autosize=1;strokeColor=none;" vertex="1" parent="WIyWlLk6GJQsqaUBKTNV-1">
          <mxGeometry x="-370" y="245" width="80" height="30" as="geometry" />
        </mxCell>
        <mxCell id="e9XX3V7E6USTkY81MT2J-6" value="&lt;font style=&quot;font-size: 23px&quot;&gt;-&lt;/font&gt;" style="text;html=1;align=center;verticalAlign=middle;resizable=0;points=[];autosize=1;strokeColor=none;strokeWidth=8;" vertex="1" parent="WIyWlLk6GJQsqaUBKTNV-1">
          <mxGeometry x="-300" y="290" width="20" height="20" as="geometry" />
        </mxCell>
        <mxCell id="e9XX3V7E6USTkY81MT2J-11" value="" style="endArrow=classic;html=1;" edge="1" parent="WIyWlLk6GJQsqaUBKTNV-1">
          <mxGeometry width="50" height="50" relative="1" as="geometry">
            <mxPoint x="120" y="280" as="sourcePoint" />
            <mxPoint x="180" y="280" as="targetPoint" />
          </mxGeometry>
        </mxCell>
        <mxCell id="e9XX3V7E6USTkY81MT2J-13" value="总压&lt;br&gt;静压" style="text;html=1;align=center;verticalAlign=middle;resizable=0;points=[];autosize=1;strokeColor=none;" vertex="1" parent="WIyWlLk6GJQsqaUBKTNV-1">
          <mxGeometry x="130" y="245" width="40" height="30" as="geometry" />
        </mxCell>
      </root>
    </mxGraphModel>
  </diagram>
</mxfile>
